<svg xmlns="http://www.w3.org/2000/svg" xmlns:xlink="http://www.w3.org/1999/xlink" onload="SetParams()">
	<script><![CDATA[
		function SetParams() {
			var params = {
				scale: 1.0,
				color: "#000"
			};

			var pairs = document.defaultView.location.href.split("?")[1].split(",");
			for (var i = 0, len = pairs.length; i < len; i++) {
				var pair = pairs[i].split('=');
				params[pair[0]] = pair[1];
			}

			document.getElementById("master").setAttribute("transform", "scale(" + params.scale + ", " + params.scale + ")");
			document.getElementById("check").setAttribute("stroke", params.color);
			document.getElementById("letters").setAttribute("fill", params.color);
		}
	]]></script>
	<g id="master">
		<path id="check" d="M171.513 15.662l14.707 14.702 30.375-30.365" fill="none" stroke-width="17.937" transform="translate(0 7)"/>
		<g id="letters">
			<path d="M336.085 100.377h-18.023v-44.778l-1.423-10.614h14.651l1.423 7.709c.738-1.69 1.599-3.115 2.582-4.277.984-1.162 2.055-2.13 3.215-2.904 1.159-.774 2.354-1.303 3.584-1.584 1.23-.282 2.424-.458 3.584-.528 1.335 0 2.811.158 4.427.475 1.616.317 3.127.845 4.532 1.584l-2.899 14.996c-1.124-.598-2.354-1.056-3.689-1.373-1.335-.317-2.705-.475-4.111-.475-2.319 0-4.181.686-5.586 2.059-1.405 1.373-2.161 3.327-2.266 5.861v33.848zm0 0"/>
			<path d="M67.547 43.402c2.866 0 5.466.334 7.801 1.001 2.335.667 4.334 1.72 5.997 3.16 1.663 1.439 2.936 3.177 3.821 5.213.884 2.036 1.344 4.511 1.38 7.425 0 2.598-.46 4.862-1.38 6.793-.92 1.931-2.123 3.616-3.609 5.055-1.486 1.439-3.237 2.598-5.254 3.476-2.017.878-4.051 1.632-6.103 2.264-2.052.632-4.157 1.053-6.315 1.264-2.158.211-4.104.404-5.837.579.106 1.229.407 2.37.902 3.423.495 1.053 1.203 1.984 2.123 2.791.92.807 2.017 1.439 3.29 1.896 1.274.456 2.76.702 4.458.737 1.309 0 2.583-.123 3.821-.369s2.423-.597 3.556-1.053c1.132-.456 2.229-.93 3.29-1.422 1.061-.491 1.999-1.053 2.813-1.685l4.776 11.849c-.142.14-.725.527-1.751 1.159-1.026.632-2.459 1.334-4.299 2.106-1.84.772-3.998 1.439-6.474 2.001-2.477.562-5.254.86-8.332.895-4.776 0-8.845-.685-12.206-2.054-3.361-1.369-6.121-3.265-8.279-5.687-2.158-2.422-3.715-5.354-4.67-8.794-.955-3.44-1.451-7.215-1.486-11.322 0-2.598.248-5.161.743-7.688.495-2.528 1.274-4.933 2.335-7.215s2.37-4.388 3.927-6.319 3.361-3.598 5.413-5.003c2.052-1.404 4.387-2.493 7.005-3.265 2.618-.772 5.466-1.176 8.544-1.211zm3.237 17.009c0-1.334-.371-2.405-1.114-3.212-.743-.807-1.787-1.211-3.131-1.211-1.344 0-2.565.316-3.662.948-1.097.632-2.07 1.51-2.919 2.633-.849 1.123-1.486 2.457-1.91 4.002-.425 1.545-.708 3.265-.849 5.161 1.486-.07 3.025-.298 4.617-.685 1.592-.386 3.043-.913 4.352-1.58 1.309-.667 2.406-1.51 3.29-2.528.884-1.018 1.327-2.194 1.327-3.528zm0 0"/>
			<path d="M93.671 100.377v-44.247l-1.318-11.141h14.914l1.159 5.861c.843-1.126 1.757-2.147 2.74-3.062.984-.915 2.073-1.69 3.267-2.323 1.195-.634 2.53-1.144 4.005-1.531 1.476-.387 3.109-.563 4.901-.528 3.162 0 5.955.563 8.379 1.69 2.424 1.126 4.374 2.939 5.85 5.438 1.651-2.218 3.654-3.96 6.008-5.227 2.354-1.267 5.288-1.901 8.801-1.901 2.635 0 5.007.37 7.115 1.109 2.108.739 3.882 1.901 5.323 3.485 1.44 1.584 2.565 3.573 3.373 5.966.808 2.394 1.212 5.245 1.212 8.554v37.858h-18.024v-34.69c0-1.232-.053-2.358-.158-3.379-.105-1.021-.334-1.918-.685-2.693-.351-.774-.843-1.355-1.476-1.742-.632-.387-1.511-.598-2.635-.634-2.108 0-3.619.739-4.532 2.218-.913 1.478-1.388 3.397-1.423 5.755v35.165h-18.024v-34.69c0-1.197-.035-2.306-.105-3.326-.07-1.021-.281-1.918-.632-2.693-.351-.774-.843-1.373-1.476-1.795-.632-.422-1.511-.634-2.635-.634-1.089 0-2.003.194-2.74.581-.738.387-1.335.95-1.792 1.69-.457.739-.808 1.584-1.054 2.534-.246.95-.351 2.042-.316 3.274v35.059h-18.024zm0 0"/>
			<path d="M177.379 56.063h18.403v44.315h-18.403v-44.315zm0 0"/>
			<path d="M203.965 100.377v-44.25l-1.316-11.142h15.007l1.053 5.967c1.755-2.323 3.914-4.154 6.477-5.492s5.652-2.024 9.268-2.059c2.633 0 5.02.37 7.161 1.109s3.949 1.901 5.424 3.485c1.474 1.584 2.633 3.573 3.475 5.967.843 2.394 1.246 5.245 1.211 8.554v37.861h-18.114v-34.692c0-1.267-.053-2.411-.158-3.432-.105-1.021-.316-1.919-.632-2.693s-.79-1.338-1.422-1.69c-.632-.352-1.474-.563-2.528-.634-2.212 0-3.932.757-5.16 2.271-1.229 1.514-1.843 3.45-1.843 5.808v35.062h-17.904zm0 0"/>
			<path d="M285.853 43.562c1.202 0 2.21.035 3.023.105.813.07 1.556.21 2.228.421v-18.624h18.035v63.132l1.167 11.732h-15.224l-.955-5.156h-.637c-2.864 4.524-7.355 6.787-13.473 6.787-3.041 0-5.676-.368-7.904-1.105-2.228-.737-4.155-1.736-5.782-2.999-1.627-1.263-2.917-2.771-3.872-4.524-.955-1.754-1.733-3.595-2.334-5.524-.601-1.929-1.008-3.963-1.22-6.103-.212-2.139-.318-4.226-.318-6.261 0-4.665.619-8.944 1.857-12.837 1.238-3.893 3.023-7.243 5.357-10.049 2.334-2.806 5.181-5.016 8.54-6.629 3.359-1.613 7.196-2.403 11.511-2.367zm5.251 13.573c-.601-.21-1.255-.386-1.963-.526-.707-.14-1.468-.228-2.281-.263-2.122 0-3.837.544-5.145 1.631-1.308 1.087-2.352 2.473-3.13 4.156-.778 1.684-1.291 3.595-1.538 5.735-.248 2.139-.389 4.191-.424 6.155 0 2.069.106 4.016.318 5.84.212 1.824.619 3.437 1.22 4.84s1.397 2.473 2.387 3.209c.99.737 2.228 1.14 3.713 1.21 1.061 0 1.998-.175 2.811-.526.813-.351 1.538-.807 2.175-1.368.637-.561 1.096-1.193 1.379-1.894.283-.701.442-1.42.477-2.157v-26.042zm0 0"/>
			<path d="M19.974 100.377h-18.023v-44.778l-1.423-10.614h14.651l1.423 7.709c.738-1.69 1.599-3.115 2.582-4.277.984-1.162 2.055-2.13 3.215-2.904 1.159-.774 2.354-1.303 3.584-1.584 1.23-.282 2.424-.458 3.584-.528 1.335 0 2.811.158 4.427.475 1.616.317 3.127.845 4.532 1.584l-2.898 14.996c-1.124-.598-2.354-1.056-3.689-1.373-1.335-.317-2.705-.475-4.111-.475-2.319 0-4.181.686-5.586 2.059-1.405 1.373-2.161 3.327-2.266 5.861v33.848zm0 0"/>
		</g>
	</g>
</svg>